<svg viewBox="0 0 91 91" enable-background="new 0 0 91 91" id="Layer_1" version="1.1" xml:space="preserve" xmlns="http://www.w3.org/2000/svg" xmlns:xlink="http://www.w3.org/1999/xlink" fill="#000000"><g id="SVGRepo_bgCarrier" stroke-width="0"></g><g id="SVGRepo_tracerCarrier" stroke-linecap="round" stroke-linejoin="round"></g><g id="SVGRepo_iconCarrier"> <g> <g> <polygon fill="#14bd66" points="75.354,44.903 88.098,20.862 2.606,20.86 15.354,44.903 "></polygon> <rect fill="#0ebe83" height="9.441" width="24.253" x="33.227" y="5.843"></rect> <path d="M79.494,48.999c-0.482,0.912-1.43,1.482-2.463,1.482h-18.57c-1.287,6.059-6.672,10.619-13.107,10.619 c-6.435,0-11.822-4.561-13.111-10.619H13.676c-1.033,0-1.98-0.57-2.463-1.482L0.756,29.278v58.27h83.076 c3.369,0,6.109-2.742,6.109-6.111V29.288L79.494,48.999z" fill="#1ad549"></path> <path d="M45.354,55.524c3.334,0,6.189-2.098,7.314-5.043H38.036C39.165,53.427,42.018,55.524,45.354,55.524z" fill="#0ebe83"></path> </g> </g> </g></svg>
